<svg width="24" height="24" viewBox="0 0 24 24" fill="none" xmlns="http://www.w3.org/2000/svg">
<g id="VIP program-dark">
<path id="Union" fill-rule="evenodd" clip-rule="evenodd" d="M14.7958 7.25592C13.9209 5.19399 11.8782 3.75 9.5 3.75C6.32436 3.75 3.75 6.32436 3.75 9.5C3.75 11.8782 5.19403 13.9209 7.25601 14.7959C7.25207 14.6977 7.25008 14.5991 7.25008 14.5C7.25008 10.4959 10.496 7.25 14.5001 7.25C14.5991 7.25 14.6977 7.25199 14.7958 7.25592ZM16.1159 7.43073C16.2584 7.22727 16.2967 6.95751 16.1941 6.71133C15.1021 4.0928 12.5171 2.25 9.5 2.25C5.49594 2.25 2.25 5.49594 2.25 9.5C2.25 12.5171 4.0928 15.1021 6.71133 16.1941C6.95755 16.2967 7.22735 16.2583 7.43082 16.1159C8.16519 19.3421 11.0514 21.75 14.5001 21.75C18.5041 21.75 21.7501 18.5041 21.7501 14.5C21.7501 11.0514 19.3422 8.1651 16.1159 7.43073ZM20.2501 14.5C20.2501 11.3244 17.6757 8.75 14.5001 8.75C11.3244 8.75 8.75008 11.3244 8.75008 14.5C8.75008 17.6756 11.3244 20.25 14.5001 20.25C17.6757 20.25 20.2501 17.6756 20.2501 14.5Z" fill="white"/>
<path id="Union_2" fill-rule="evenodd" clip-rule="evenodd" d="M18.5304 2.46967C18.7937 2.73305 18.8203 3.14358 18.61 3.43662C18.9548 3.55278 19.3002 3.72126 19.6235 3.9522C20.566 4.62546 21.25 5.77854 21.25 7.5C21.25 7.91421 20.9143 8.25 20.5 8.25C20.0858 8.25 19.75 7.91421 19.75 7.5C19.75 6.22146 19.2674 5.54121 18.7516 5.1728C18.1951 4.7753 17.5185 4.68355 17.1061 4.74246C16.7865 4.78812 16.4736 4.62415 16.3292 4.33541C16.1848 4.04667 16.2414 3.69794 16.4697 3.46967L17.4697 2.46967C17.7626 2.17678 18.2375 2.17678 18.5304 2.46967ZM5.46967 21.5303C5.20629 21.267 5.17975 20.8564 5.39005 20.5634C5.04525 20.4472 4.69988 20.2787 4.37657 20.0478C3.43401 19.3745 2.75 18.2215 2.75 16.5C2.75 16.0858 3.08579 15.75 3.5 15.75C3.91421 15.75 4.25 16.0858 4.25 16.5C4.25 17.7785 4.73266 18.4588 5.24843 18.8272C5.80493 19.2247 6.48152 19.3165 6.89393 19.2575C7.21351 19.2119 7.52645 19.3758 7.67082 19.6646C7.81519 19.9533 7.7586 20.3021 7.53033 20.5303L6.53033 21.5303C6.23744 21.8232 5.76256 21.8232 5.46967 21.5303Z" fill="#F7A600"/>
</g>
</svg>
