<svg width="24" height="24" viewBox="0 0 24 24" fill="none" xmlns="http://www.w3.org/2000/svg">
<g id="VIP program-dark">
<path id="Vector" d="M11.25 18.75H6C5.80109 18.75 5.61032 18.671 5.46967 18.5303C5.32902 18.3897 5.25 18.1989 5.25 18V6C5.25 5.80109 5.32902 5.61032 5.46967 5.46967C5.61032 5.32902 5.80109 5.25 6 5.25H12.75V7.5C12.75 8.09674 12.9871 8.66903 13.409 9.09099C13.831 9.51295 14.4033 9.75 15 9.75H17.25V10.5C17.25 10.6989 17.329 10.8897 17.4697 11.0303C17.6103 11.171 18 11.25 18 11.25C18 11.25 18.3897 11.171 18.5303 11.0303C18.671 10.8897 18.75 10.6989 18.75 10.5V9C18.75 9 18.75 9 18.75 8.955C18.7422 8.8861 18.7271 8.81822 18.705 8.7525V8.685C18.6689 8.60788 18.6208 8.537 18.5625 8.475L14.0625 3.975C14.0005 3.91666 13.9296 3.86856 13.8525 3.8325C13.8301 3.82932 13.8074 3.82932 13.785 3.8325L13.545 3.75H6C5.40326 3.75 4.83097 3.98705 4.40901 4.40901C3.98705 4.83097 3.75 5.40326 3.75 6V18C3.75 18.5967 3.98705 19.169 4.40901 19.591C4.83097 20.0129 5.40326 20.25 6 20.25H11.25C11.4489 20.25 11.6397 20.171 11.7803 20.0303C11.921 19.8897 12 19.6989 12 19.5C12 19.3011 11.921 19.1103 11.7803 18.9697C11.6397 18.829 11.4489 18.75 11.25 18.75ZM14.25 6.3075L16.1925 8.25H15C14.8011 8.25 14.6103 8.17098 14.4697 8.03033C14.329 7.88968 14.25 7.69891 14.25 7.5V6.3075Z" fill="white"/>
<path id="Union" d="M14.25 16.875C14.25 15.4253 15.4253 14.25 16.875 14.25C18.3247 14.25 19.5 15.4253 19.5 16.875C19.5 18.3247 18.3247 19.5 16.875 19.5C15.4253 19.5 14.25 18.3247 14.25 16.875ZM16.875 12.75C14.5968 12.75 12.75 14.5968 12.75 16.875C12.75 19.1532 14.5968 21 16.875 21C19.1532 21 21 19.1532 21 16.875C21 14.5968 19.1532 12.75 16.875 12.75ZM16.875 15.75C16.875 15.3358 16.5392 15 16.125 15C15.7108 15 15.375 15.3358 15.375 15.75V16.875C15.375 17.7034 16.0466 18.375 16.875 18.375H18C18.4142 18.375 18.75 18.0392 18.75 17.625C18.75 17.2108 18.4142 16.875 18 16.875H16.875V15.75Z" fill="#F7A600"/>
</g>
</svg>
