<svg width="24" height="24" viewBox="0 0 24 24" fill="none" xmlns="http://www.w3.org/2000/svg">
<g id="VIP program-dark">
<path id="2" d="M3.63227 5.49633C2.41678 5.75469 1.64088 6.94947 1.89924 8.16496L3.25016 14.5206V18.5C3.25016 19.7427 4.25752 20.75 5.50016 20.75H18.5002C19.7428 20.75 20.7502 19.7427 20.7502 18.5V9.50002C20.7502 8.25738 19.7428 7.25002 18.5002 7.25002H17.551L17.0605 4.94233C16.8022 3.72684 15.6074 2.95094 14.3919 3.2093L3.63227 5.49633ZM16.0175 7.25002H5.50016C4.6278 7.25002 3.8714 7.74648 3.49807 8.47227L3.36646 7.85309C3.28034 7.44793 3.53898 7.04967 3.94414 6.96355L14.7038 4.67652C15.1089 4.5904 15.5072 4.84903 15.5933 5.2542L16.0175 7.25002ZM4.75016 9.50002C4.75016 9.0858 5.08595 8.75002 5.50016 8.75002H18.5002C18.9144 8.75002 19.2502 9.0858 19.2502 9.50002V18.5C19.2502 18.9142 18.9144 19.25 18.5002 19.25H5.50016C5.08595 19.25 4.75016 18.9142 4.75016 18.5V9.50002Z" fill="white"/>
<path id="1" d="M15.4685 10.9144C15.792 11.1731 15.8444 11.6451 15.5857 11.9685L14.5605 13.25L23 13.25C23.4142 13.25 23.75 13.5858 23.75 14C23.75 14.4142 23.4142 14.75 23 14.75L14.5605 14.75L15.5857 16.0315C15.8444 16.355 15.792 16.8269 15.4685 17.0857C15.1451 17.3444 14.6731 17.292 14.4144 16.9685L12.0396 14L14.4144 11.0315C14.6731 10.7081 15.1451 10.6556 15.4685 10.9144Z" fill="#F7A600"/>
</g>
</svg>
