<svg width="24" height="24" viewBox="0 0 24 24" fill="none" xmlns="http://www.w3.org/2000/svg">
<g id="VIP program-dark">
<path id="2" d="M1.25 5.5C1.25 4.25736 2.25736 3.25 3.5 3.25H18.5C19.7426 3.25 20.75 4.25736 20.75 5.5V7.15385H19.25V5.5C19.25 5.08579 18.9142 4.75 18.5 4.75H3.5C3.08579 4.75 2.75 5.08579 2.75 5.5V16.5C2.75 16.9142 3.08579 17.25 3.5 17.25H9.41177V18.75H3.5C2.25736 18.75 1.25 17.7426 1.25 16.5V5.5Z" fill="white"/>
<path id="1" d="M6 7.25C5.58579 7.25 5.25 7.58579 5.25 8C5.25 8.41421 5.58579 8.75 6 8.75H10C10.4142 8.75 10.75 8.41421 10.75 8C10.75 7.58579 10.4142 7.25 10 7.25H6ZM22.487 8.54167L22.6207 9.07441C22.9092 10.1884 22.6554 11.677 22.0514 13.1204C21.4727 14.5031 20.5315 15.9475 19.2483 17.1502C19.201 18.3302 18.7123 19.3017 17.7982 20.2321L17.0038 21.0406L15.3879 18.566C14.674 18.6422 13.9209 18.3123 13.4031 17.7853C12.8803 17.2533 12.5567 16.4796 12.6429 15.7442L10.2464 14.1033L11.0371 13.2986C11.9294 12.3905 12.879 11.8992 14.0208 11.8388C15.1983 10.524 16.6199 9.56465 17.9816 8.9769C19.4032 8.36327 20.8689 8.10943 21.962 8.40294L22.487 8.54167ZM21.2408 9.80679C20.5872 9.74521 19.6383 9.90536 18.5621 10.3699C17.3065 10.9119 15.9824 11.8254 14.925 13.0822L14.6957 13.3548L14.3431 13.3465C13.7106 13.3316 13.1679 13.4911 12.6162 13.9022L14.4883 15.1839L14.1601 15.7903C14.0878 15.9237 14.0752 16.3295 14.4544 16.7154C14.8362 17.1039 15.2378 17.089 15.3555 17.0244L15.9523 16.6966L17.2101 18.6228C17.6313 18.0451 17.7859 17.49 17.7632 16.8372L17.7506 16.4754L18.0195 16.2385C19.2504 15.154 20.1491 13.8046 20.6835 12.5275C21.1415 11.4329 21.3006 10.4703 21.2408 9.80679ZM18.805 13C19.212 13 19.542 12.6642 19.542 12.25C19.542 11.8358 19.212 11.5 18.805 11.5C18.398 11.5 18.0681 11.8358 18.0681 12.25C18.0681 12.6642 18.398 13 18.805 13ZM9.96582 21.1683C9.96582 21.1683 11.9502 20.8209 12.6966 20.0458C13.2632 19.4573 13.3656 18.6018 12.9014 18.1197C12.4371 17.6376 11.6145 17.7451 11.0479 18.3335C10.3788 19.0284 9.96582 21.1683 9.96582 21.1683Z" fill="#F7A600"/>
</g>
</svg>
