<svg width="24" height="24" viewBox="0 0 24 24" fill="none" xmlns="http://www.w3.org/2000/svg">
<g id="VIP program-dark">
<path id="Union" d="M9.75 9C9.75 8.17157 10.4216 7.5 11.25 7.5H12.75C13.5784 7.5 14.25 8.17157 14.25 9V19.5C14.25 20.3284 13.5784 21 12.75 21H11.25C10.4216 21 9.75 20.3284 9.75 19.5V9ZM12.75 9H11.25V19.5H12.75V9ZM3 13.5C3 12.6716 3.67157 12 4.5 12H6C6.82843 12 7.5 12.6716 7.5 13.5V19.5C7.5 20.3284 6.82843 21 6 21H4.5C3.67157 21 3 20.3284 3 19.5V13.5ZM6 13.5H4.5V19.5H6V13.5ZM18 9.75C17.1716 9.75 16.5 10.4216 16.5 11.25V19.5C16.5 20.3284 17.1716 21 18 21H19.5C20.3284 21 21 20.3284 21 19.5V11.25C21 10.4216 20.3284 9.75 19.5 9.75H18ZM18 11.25H19.5V19.5H18V11.25Z" fill="white"/>
<path id="Vector" d="M14.2465 3.30193C14.269 3.18402 14.1791 3.04252 14.0667 3.04252L12.7852 2.85386L12.2006 1.62757C12.1781 1.58041 12.1556 1.55682 12.1107 1.53324C11.9983 1.46249 11.8634 1.50966 11.7959 1.62757L11.2339 2.85386L9.95234 3.04252C9.8849 3.04252 9.83993 3.06611 9.81745 3.11327C9.72752 3.2076 9.72752 3.3491 9.81745 3.44343L10.7392 4.38673L10.5144 5.73093C10.5144 5.7781 10.5144 5.82526 10.5369 5.87243C10.6043 5.99034 10.7392 6.03751 10.8517 5.96676L11.9983 5.33003L13.1449 5.96676C13.1674 5.99034 13.2123 5.99034 13.2573 5.99034C13.2798 5.99034 13.2798 5.99034 13.3023 5.99034C13.4147 5.96676 13.5046 5.84885 13.4821 5.70735L13.2573 4.36315L14.1791 3.41984C14.224 3.39626 14.2465 3.3491 14.2465 3.30193Z" fill="#F7A600"/>
</g>
</svg>
