<svg width="24" height="24" viewBox="0 0 24 24" fill="none" xmlns="http://www.w3.org/2000/svg">
<g id="VIP program-dark" clip-path="url(#clip0_3424_2430)">
<path id="Ellipse 6230 (Stroke)" d="M12 19.5C7.85786 19.5 4.5 16.1421 4.5 12C4.5 7.85786 7.85786 4.5 12 4.5C16.1421 4.5 19.5 7.85786 19.5 12C19.5 16.1421 16.1421 19.5 12 19.5ZM12 21C16.9706 21 21 16.9706 21 12C21 7.02944 16.9706 3 12 3C7.02944 3 3 7.02944 3 12C3 16.9706 7.02944 21 12 21Z" fill="white"/>
<path id="Ellipse 6229 (Stroke)" d="M3.94284 17.184C4.31333 17.3693 4.4635 17.8198 4.27825 18.1903C4.08228 18.5822 3.89961 19.0936 3.82908 19.5489C3.74927 20.0642 3.84964 20.2441 3.86885 20.2639C3.92968 20.3264 4.16226 20.4624 4.83249 20.3325C5.46661 20.2097 6.3048 19.8793 7.30063 19.3337C9.28268 18.2478 11.7367 16.3943 14.1737 14.0225C16.6107 11.6508 18.5301 9.24806 19.6694 7.29622C20.2419 6.31557 20.5949 5.48666 20.7349 4.8561C20.8829 4.18964 20.7532 3.95346 20.6924 3.89095C20.6911 3.88961 20.5529 3.77282 20.0606 3.87371C19.6089 3.9663 19.0281 4.21626 18.4162 4.62418C18.0715 4.85394 17.6059 4.76081 17.3761 4.41617C17.1464 4.07152 17.2395 3.60587 17.5841 3.3761C18.3073 2.89402 19.0672 2.54614 19.7594 2.40426C20.4113 2.27066 21.2204 2.28274 21.7674 2.84479C22.3737 3.46784 22.3789 4.37219 22.1992 5.18122C22.0117 6.02615 21.5747 7.00768 20.9649 8.05241C19.7397 10.1513 17.7254 12.6591 15.2198 15.0975C12.7143 17.5359 10.1528 19.4814 8.02137 20.6492C6.96047 21.2305 5.96744 21.6406 5.11773 21.8052C4.30412 21.9628 3.40025 21.9331 2.79389 21.31C2.24081 20.7417 2.25672 19.9006 2.34676 19.3193C2.44609 18.6781 2.68759 18.0175 2.93661 17.5195C3.12186 17.149 3.57236 16.9988 3.94284 17.184Z" fill="#F7A600"/>
</g>
<defs>
<clipPath id="clip0_3424_2430">
<rect width="24" height="24" fill="white"/>
</clipPath>
</defs>
</svg>
