<svg width="24" height="24" viewBox="0 0 24 24" fill="none" xmlns="http://www.w3.org/2000/svg">
<path d="M18.75 9C18.75 9.82843 18.0784 10.5 17.25 10.5C16.4216 10.5 15.75 9.82843 15.75 9C15.75 8.17157 16.4216 7.5 17.25 7.5C18.0784 7.5 18.75 8.17157 18.75 9ZM2.25 12.75C2.25 10.6789 3.92893 9 6 9H7.5C9.57107 9 11.25 10.6789 11.25 12.75C11.25 13.9926 10.2426 15 9 15H4.5C3.25736 15 2.25 13.9926 2.25 12.75ZM6 10.5C4.75736 10.5 3.75 11.5074 3.75 12.75C3.75 13.1642 4.08579 13.5 4.5 13.5H9C9.41421 13.5 9.75 13.1642 9.75 12.75C9.75 11.5074 8.74264 10.5 7.5 10.5H6ZM3.75 16.5C3.75 16.0858 3.41421 15.75 3 15.75C2.58579 15.75 2.25 16.0858 2.25 16.5C2.25 18.5711 3.92893 20.25 6 20.25H10.5L9.3 21.15C8.96863 21.3985 8.90147 21.8686 9.15 22.2C9.39853 22.5314 9.86863 22.5985 10.2 22.35L13.182 20.1135C13.7644 19.6767 13.4554 18.75 12.7275 18.75H6C4.75736 18.75 3.75 17.7426 3.75 16.5Z" fill="white"/>
<path d="M19.5 7.50004C19.5 7.91426 19.8358 8.25004 20.25 8.25004C20.6642 8.25004 21 7.91426 21 7.50004C21 5.42898 19.3211 3.75004 17.25 3.75004H12.75L13.95 2.85004C14.2814 2.60152 14.3485 2.13142 14.1 1.80004C13.8515 1.46867 13.3814 1.40152 13.05 1.65004L10.068 3.88654C9.48559 4.32335 9.79458 5.25004 10.5225 5.25004H17.25C18.4926 5.25004 19.5 6.2574 19.5 7.50004ZM8.25 6.75004C8.25 7.57847 7.57843 8.25004 6.75 8.25004C5.92157 8.25004 5.25 7.57847 5.25 6.75004C5.25 5.92162 5.92157 5.25004 6.75 5.25004C7.57843 5.25004 8.25 5.92162 8.25 6.75004ZM12.75 15C12.75 12.929 14.4289 11.25 16.5 11.25H18C20.0711 11.25 21.75 12.929 21.75 15C21.75 16.2427 20.7426 17.25 19.5 17.25H15C13.7574 17.25 12.75 16.2427 12.75 15ZM16.5 12.75C15.2574 12.75 14.25 13.7574 14.25 15C14.25 15.4143 14.5858 15.75 15 15.75H19.5C19.9142 15.75 20.25 15.4143 20.25 15C20.25 13.7574 19.2426 12.75 18 12.75H16.5Z" fill="#F7A600"/>
</svg>
