<svg width="22" height="22" viewBox="0 0 22 22" fill="none" xmlns="http://www.w3.org/2000/svg">
<g id="Structured Products">
<g id="Union">
<path d="M5.65627 7.83772C5.79297 8.18411 5.60957 8.57068 5.24663 8.70114L1.95733 9.88356L10.9997 13.7306L20.0424 9.8871L16.7531 8.70468C16.3901 8.57422 16.2067 8.18765 16.3434 7.84126C16.4801 7.49487 16.8852 7.31983 17.2481 7.4503L21.2852 8.90151C22.2379 9.24399 22.2379 10.5302 21.2852 10.8727L11.3887 15.0231C11.138 15.1133 10.8615 15.1133 10.6108 15.0231L0.714542 10.8691C-0.238176 10.5267 -0.238185 9.24045 0.714541 8.89797L4.7516 7.44676C5.11454 7.31629 5.51957 7.49133 5.65627 7.83772Z" fill="white"/>
<path d="M1.50576 14.0535C1.64234 13.7078 2.04664 13.5333 2.40879 13.6637L10.9997 17.3496L19.5918 13.6747C19.954 13.5446 20.3582 13.7193 20.4946 14.065C20.631 14.4107 20.4479 14.7965 20.0857 14.9267L11.3876 18.6395C11.1373 18.7295 10.8612 18.7294 10.6109 18.6393L1.91418 14.9153C1.55203 14.785 1.36917 14.3991 1.50576 14.0535Z" fill="white"/>
<path d="M18.4756 18.7785C18.8385 18.6481 19.022 18.2615 18.8854 17.9151C18.7488 17.5687 18.3438 17.3936 17.9808 17.524L10.9967 20.6401L4.01069 17.5368C3.64758 17.4068 3.24278 17.5823 3.10654 17.9288C2.9703 18.2754 3.15421 18.6617 3.51732 18.7918L10.6092 21.933C10.8595 22.0226 11.1354 22.0224 11.3856 21.9326L18.4756 18.7785Z" fill="white"/>
</g>
<path id="Union_2" d="M11.1187 8.15005e-05C11.5093 0.0058254 11.8198 0.313724 11.8122 0.687792L11.7939 1.59092L13.1073 1.61023C13.4979 1.61598 13.8084 1.92387 13.8008 2.29794C13.7932 2.67201 13.4704 2.9706 13.0799 2.96485L10.1163 2.92127C9.46529 2.9117 8.92733 3.40934 8.91469 4.03279C8.90206 4.65623 9.41954 5.1694 10.0705 5.17897L11.9564 5.2067C13.3886 5.22776 14.527 6.35673 14.4993 7.72831C14.4715 9.09989 13.288 10.1947 11.8558 10.1736L11.6201 10.1702L11.6018 11.0732C11.5942 11.4473 11.2714 11.7459 10.8808 11.7401C10.4902 11.7344 10.1798 11.4265 10.1873 11.0524L10.2056 10.1494L8.69679 10.1301C8.30621 10.1243 7.99572 9.81642 8.0033 9.44235C8.01088 9.06828 8.33365 8.7697 8.72424 8.77544L11.8832 8.81902C12.5342 8.8286 13.0722 8.33095 13.0848 7.70751C13.0975 7.08406 12.58 6.5709 11.929 6.56132L10.0431 6.53359C8.61092 6.51253 7.47246 5.38357 7.50025 4.01199C7.52804 2.6404 8.71156 1.54559 10.1437 1.56665L10.3794 1.57012L10.3977 0.666991C10.4053 0.292923 10.7281 -0.00566238 11.1187 8.15005e-05Z" fill="#F7A600"/>
</g>
</svg>
