<svg width="24" height="24" viewBox="0 0 24 24" fill="none" xmlns="http://www.w3.org/2000/svg">
<g id="VIP program-dark">
<path id="Vector" fill-rule="evenodd" clip-rule="evenodd" d="M18.5 2.75C18.9142 2.75 19.25 3.08579 19.25 3.5V5.25H21C21.4142 5.25 21.75 5.58579 21.75 6C21.75 6.41421 21.4142 6.75 21 6.75H19.25V8.5C19.25 8.91421 18.9142 9.25 18.5 9.25C18.0858 9.25 17.75 8.91421 17.75 8.5V6.75H16C15.5858 6.75 15.25 6.41421 15.25 6C15.25 5.58579 15.5858 5.25 16 5.25H17.75V3.5C17.75 3.08579 18.0858 2.75 18.5 2.75ZM15.6019 9.79987V8H8.16521V9.79988H10.9069V10.9758C8.67821 11.0751 7 11.5105 7 12.0328C7 12.5551 8.6782 12.9905 10.9069 13.0898V16.8636H12.8602V13.0889C15.0803 12.9881 16.75 12.5535 16.75 12.0328C16.75 11.512 15.0803 11.0773 12.8602 10.9766V9.79987H15.6019ZM15.9104 11.9265C15.9104 12.2701 14.6127 12.5582 12.8602 12.6382L12.747 12.643H12.7345L12.6283 12.6468H12.6168C12.5378 12.6495 12.4579 12.6518 12.3769 12.6536H12.3719L12.2633 12.6559H12.2326L12.1469 12.657H11.6042L11.5194 12.6559H11.49L11.3887 12.6538H11.3775C11.2574 12.6511 11.1392 12.6474 11.0227 12.643H11.0211L10.9051 12.638C9.14392 12.5592 7.83789 12.2701 7.83789 11.9249C7.83789 11.5796 9.14414 11.2913 10.9051 11.2117V12.3033C11.2108 12.3191 11.536 12.3278 11.8733 12.3278C12.2159 12.3278 12.5477 12.319 12.8586 12.3025V11.2149C14.6125 11.2947 15.9104 11.583 15.9104 11.9265Z" fill="#F7A600"/>
<g id="Vector_2">
<path d="M3.75 12C3.75 7.44365 7.44365 3.75 12 3.75C12.5135 3.75 13.0154 3.79682 13.5018 3.88623C13.9092 3.96111 14.3002 3.69156 14.3751 3.28418C14.4499 2.87679 14.1804 2.48583 13.773 2.41095C13.1975 2.30517 12.6049 2.25 12 2.25C6.61522 2.25 2.25 6.61522 2.25 12C2.25 17.3848 6.61522 21.75 12 21.75C17.3848 21.75 21.75 17.3848 21.75 12C21.75 11.4972 21.7119 11.0028 21.6382 10.5196C21.5758 10.1101 21.1933 9.82877 20.7838 9.89119C20.3743 9.95361 20.0929 10.3362 20.1554 10.7456C20.2176 11.1542 20.25 11.5731 20.25 12C20.25 16.5563 16.5563 20.25 12 20.25C7.44365 20.25 3.75 16.5563 3.75 12Z" fill="white"/>
</g>
</g>
</svg>
