<svg width="24" height="24" viewBox="0 0 24 24" fill="none" xmlns="http://www.w3.org/2000/svg">
<g id="VIP program-dark">
<g id="Rectangle">
<path d="M12.1001 3.80941L19.2534 7.55694L12.1001 11.3045L4.94668 7.55694L12.1001 3.80941ZM12.5196 2.29941C12.2547 2.16061 11.9454 2.16061 11.6805 2.29941L3.42647 6.62355C2.70452 7.00177 2.70452 8.11212 3.42647 8.49034L11.6805 12.8145C11.9454 12.9533 12.2547 12.9533 12.5196 12.8145L20.7736 8.49034C21.4956 8.11212 21.4956 7.00177 20.7736 6.62355L12.5196 2.29941Z" fill="#F7A600"/>
</g>
<g id="Union">
<path d="M20.9675 13.4811C21.327 13.2965 21.4798 12.8322 21.3088 12.4442C21.1377 12.0561 20.7077 11.8912 20.3482 12.0758L12.2182 16.2512C12.1495 16.2865 12.0693 16.2845 12.002 16.2459L3.54159 11.3787C3.19028 11.1766 2.75373 11.3202 2.56651 11.6994C2.3793 12.0787 2.51233 12.55 2.86364 12.7521L11.3241 17.6193C11.7946 17.8899 12.3561 17.9038 12.8375 17.6565L20.9675 13.4811Z" fill="white"/>
<path d="M20.9675 18.0811C21.327 17.8965 21.4798 17.4322 21.3088 17.0441C21.1377 16.6561 20.7077 16.4911 20.3482 16.6758L12.2182 20.8512C12.1495 20.8865 12.0693 20.8845 12.002 20.8458L3.54159 15.9787C3.19028 15.7766 2.75373 15.9202 2.56651 16.2994C2.3793 16.6787 2.51233 17.15 2.86364 17.3521L11.3241 22.2192C11.7946 22.4899 12.3561 22.5037 12.8375 22.2565L20.9675 18.0811Z" fill="white"/>
</g>
</g>
</svg>
