<svg width="24" height="24" viewBox="0 0 24 24" fill="none" xmlns="http://www.w3.org/2000/svg">
<g id="VIP program-dark">
<path id="Vector 1039" d="M21.4286 8.05713H16.9714L13.0286 17.1428H17.4857L21.4286 8.05713Z" fill="white"/>
<path id="Union" d="M20.666 16.6452C20.666 16.2889 20.3756 16 20.0174 16C19.6591 16 19.3687 16.2889 19.3687 16.6452V17.7205C19.3687 18.0988 19.2031 18.4756 18.8844 18.7637C18.5637 19.0537 18.1166 19.2259 17.639 19.2259H10.9924L12.1294 18.1977C12.3944 17.9581 12.414 17.55 12.173 17.2864C11.932 17.0227 11.5218 17.0033 11.2567 17.243L8.87834 19.3935C8.84095 19.4273 8.80801 19.465 8.77991 19.5058C8.70994 19.6069 8.66822 19.7289 8.6661 19.8605L8.66602 19.871C8.66602 20.0639 8.75113 20.2371 8.88605 20.3553L11.2567 22.4989C11.5218 22.7386 11.932 22.7191 12.173 22.4555C12.414 22.1918 12.3944 21.7838 12.1294 21.5441L10.9926 20.5162H17.639C18.4229 20.5162 19.1857 20.2352 19.7571 19.7185C20.3305 19.2 20.666 18.4828 20.666 17.7205V16.6452Z" fill="#F7A600"/>
<path id="Union_2" d="M1.33301 7.35483C1.33301 7.71115 1.62342 8 1.98166 8C2.3399 8 2.6303 7.71115 2.6303 7.35483V6.27955C2.6303 5.90121 2.79597 5.52436 3.1146 5.23625C3.43528 4.94628 3.88239 4.77415 4.36003 4.77415H11.0067L9.86965 5.80226C9.60458 6.04194 9.58504 6.44998 9.82602 6.71363C10.067 6.97729 10.4772 6.99672 10.7423 6.75703L13.1207 4.60646C13.1581 4.57266 13.191 4.53495 13.2191 4.49424C13.2891 4.39309 13.3308 4.2711 13.3329 4.13953L13.333 4.12898C13.333 3.93607 13.2479 3.76294 13.113 3.64471L10.7423 1.50112C10.4772 1.26144 10.067 1.28087 9.82602 1.54452C9.58504 1.80817 9.60458 2.21621 9.86965 2.4559L11.0064 3.48381H4.36003C3.57611 3.48381 2.81332 3.76483 2.24194 4.28148C1.6685 4.79999 1.33301 5.51715 1.33301 6.27955V7.35483Z" fill="#F7A600"/>
<path id="Vector 1038" d="M10.2858 8.05713H2.74292V11.6571H6.51435V17.1428H10.2858V8.05713Z" fill="white"/>
<ellipse id="Ellipse 3668" cx="13.1316" cy="9.87427" rx="1.81714" ry="1.81714" fill="white"/>
</g>
</svg>
